<svg xmlns="http://www.w3.org/2000/svg" width="98.768" height="98.769" viewBox="0 0 98.768 98.769"><defs><style>.a{fill:#fff;}</style></defs><path class="a" d="M112.371,348.5l-5.456,5.456a2.894,2.894,0,1,0,4.092,4.092l5.456-5.456a2.894,2.894,0,1,0-4.092-4.092Z" transform="translate(-85.606 -280.585)"/><path class="a" d="M94.32,4.449A15.191,15.191,0,0,0,71.881,5.5l-4.8,5.794L46.566,6.409a2.894,2.894,0,0,0-2.716.769L37.029,14a2.894,2.894,0,0,0,.692,4.6l16.2,8.576L47.562,34.85l-8.711-3.733a2.894,2.894,0,0,0-3.186.613L27.48,39.915a2.894,2.894,0,0,0,.906,4.706l9.44,4.045L32.9,53.589l-.682-.682a2.894,2.894,0,0,0-4.092,0L.848,80.189a2.894,2.894,0,0,0,1.727,4.922l9.976,1.108,1.108,9.976a2.893,2.893,0,0,0,4.922,1.727L45.861,70.64a2.893,2.893,0,0,0,0-4.092l-.682-.682L50.1,60.943l4.045,9.439a2.893,2.893,0,0,0,4.706.906L67.038,63.1a2.894,2.894,0,0,0,.614-3.186l-3.733-8.711,7.673-6.358,8.576,16.2a2.893,2.893,0,0,0,4.6.692l6.82-6.82a2.893,2.893,0,0,0,.769-2.716L87.475,31.689l5.794-4.8A15.192,15.192,0,0,0,94.32,4.449ZM43.892,15.32,46.8,12.413l16.165,3.849-5.272,6.363ZM18.746,89.572l-.7-6.293a2.893,2.893,0,0,0-2.556-2.556l-6.293-.7L30.175,59.045l9.549,9.548Zm22.342-27.8L37,57.681l6.56-6.56,2.865,1.228,1.228,2.865Zm45.268-9.8-2.907,2.907-7.305-13.8,6.363-5.273ZM92.971,15.63a9.3,9.3,0,0,1-3.394,6.8l-31.017,25.7a2.894,2.894,0,0,0-.813,3.368l3.814,8.9-3.777,3.777-6.5-15.168a2.893,2.893,0,0,0-1.52-1.52l-15.169-6.5,3.777-3.777,8.9,3.814a2.894,2.894,0,0,0,3.368-.813l25.7-31.017A9.4,9.4,0,0,1,92.971,15.63Z" transform="translate(0 0)"/></svg>