<svg xmlns="http://www.w3.org/2000/svg" width="153.241" height="98.619" viewBox="0 0 153.241 98.619"><defs><style>.a{fill:#fff;}</style></defs><path class="a" d="M150.249,110.02v-3.655a6.444,6.444,0,0,0-5.088-6.291V95.74H151a2.245,2.245,0,0,0,0-4.49H134.835a2.245,2.245,0,0,0,0,4.49h5.836v4.334a6.444,6.444,0,0,0-5.088,6.291v3.309a14.2,14.2,0,0,0-2.474.608l-24.074,8.284A11.238,11.238,0,0,0,98.918,112.2H96.808A15.437,15.437,0,0,0,81.559,99.032H71.682A15.437,15.437,0,0,0,56.433,112.2h-2.11a11.238,11.238,0,0,0-10.116,6.363l-8.438-2.9a2.245,2.245,0,0,0-1.461,4.245l8.791,3.025V132.5L21.278,120.537a14.252,14.252,0,0,0-6.836-1.752H8.53a4.045,4.045,0,0,1-4.041-4.041A.749.749,0,0,1,5.238,114H15.507a9.7,9.7,0,0,1,3.165.529l5.71,1.965a2.245,2.245,0,0,0,1.461-4.245l-5.71-1.965a14.186,14.186,0,0,0-2.474-.608v-3.309a6.444,6.444,0,0,0-5.088-6.291V95.74h5.836a2.245,2.245,0,0,0,0-4.49H2.245a2.245,2.245,0,0,0,0,4.49H8.081v4.334a6.444,6.444,0,0,0-5.088,6.291v3.655A5.239,5.239,0,0,0,0,114.745a8.54,8.54,0,0,0,8.53,8.53h5.912a9.753,9.753,0,0,1,4.677,1.2l24.068,13.2a11.2,11.2,0,0,0,3.26,6.609l-4.86,5.857A48.735,48.735,0,0,0,30.379,181.2v1.939a6.734,6.734,0,1,0,13.468,0V181.2a35.239,35.239,0,0,1,8.1-22.457l9.31-11.22h8.774v5.687H67.87a6.521,6.521,0,0,0-6.514,6.514v17.5a6.521,6.521,0,0,0,6.514,6.514h4.86a2.245,2.245,0,1,0,0-4.489H67.87a2.027,2.027,0,0,1-2.024-2.024v-17.5a2.027,2.027,0,0,1,2.024-2.024h17.5a2.027,2.027,0,0,1,2.024,2.024v17.5a2.027,2.027,0,0,1-2.024,2.024H83.205a2.245,2.245,0,1,0,0,4.489h2.166a6.521,6.521,0,0,0,6.514-6.514v-17.5a6.521,6.521,0,0,0-6.514-6.514H83.5v-5.687H91.98l9.31,11.22a35.239,35.239,0,0,1,8.1,22.457v1.939a6.734,6.734,0,1,0,13.468,0V181.2a48.509,48.509,0,0,0-2.7-15.958,2.245,2.245,0,0,0-4.241,1.474,44.028,44.028,0,0,1,2.451,14.485v1.939a2.245,2.245,0,0,1-4.489,0V181.2a39.737,39.737,0,0,0-9.139-25.324l-6.931-8.353h1.105a11.16,11.16,0,0,0,4.087-.774l5.195,6.26a44.12,44.12,0,0,1,3.412,4.715,2.245,2.245,0,1,0,3.8-2.385,48.6,48.6,0,0,0-3.76-5.2l-4.86-5.857a11.2,11.2,0,0,0,3.26-6.609l24.068-13.2a9.754,9.754,0,0,1,4.677-1.2h5.911a8.54,8.54,0,0,0,8.53-8.53A5.239,5.239,0,0,0,150.249,110.02ZM7.482,106.365a1.948,1.948,0,0,1,1.945-1.945h1.8a1.948,1.948,0,0,1,1.945,1.945v3.143H7.482Zm132.59,0a1.948,1.948,0,0,1,1.945-1.945h1.8a1.948,1.948,0,0,1,1.945,1.945v3.143h-5.687ZM48.5,155.872A39.738,39.738,0,0,0,39.358,181.2v1.939a2.245,2.245,0,1,1-4.49,0V181.2A44.237,44.237,0,0,1,45.042,153l5.195-6.26a11.16,11.16,0,0,0,4.087.774h1.105Zm30.518-2.667H74.526v-5.687h4.489Zm14.012-10.176h-38.7a6.742,6.742,0,0,1-6.734-6.734v-12.87a6.742,6.742,0,0,1,6.734-6.734h9.428a2.245,2.245,0,0,0,0-4.489h-2.76a10.943,10.943,0,0,1,10.692-8.68h9.877a10.943,10.943,0,0,1,10.692,8.68H74.226a2.245,2.245,0,1,0,0,4.489H98.919a6.742,6.742,0,0,1,6.734,6.734v12.87a6.742,6.742,0,0,1-6.734,6.734Zm51.685-24.243H138.8a14.251,14.251,0,0,0-6.836,1.752L110.142,132.5v-9.572l24.428-8.4a9.7,9.7,0,0,1,3.164-.529H148a.749.749,0,0,1,.748.748,4.045,4.045,0,0,1-4.041,4.041Z" transform="translate(0 -91.25)"/><path class="a" d="M246.969,333.484a6.734,6.734,0,1,0-6.734,6.734A6.742,6.742,0,0,0,246.969,333.484Zm-6.734,2.245a2.245,2.245,0,1,1,2.245-2.245A2.247,2.247,0,0,1,240.234,335.729Z" transform="translate(-163.614 -256.265)"/></svg>