<svg xmlns="http://www.w3.org/2000/svg" width="98.769" height="98.769" viewBox="0 0 98.769 98.769"><defs><style>.a{fill:#fff;}</style></defs><g transform="translate(40.221 5.741)"><path class="a" d="M225.38,29.76H209.947a1.447,1.447,0,1,0,0,2.894H225.38a1.447,1.447,0,0,0,0-2.894Z" transform="translate(-208.5 -29.76)"/></g><g transform="translate(40.221 10.499)"><path class="a" d="M225.38,54.427H209.947a1.447,1.447,0,1,0,0,2.894H225.38a1.447,1.447,0,0,0,0-2.894Z" transform="translate(-208.5 -54.427)"/></g><g transform="translate(40.221 15.258)"><path class="a" d="M225.38,79.094H209.947a1.447,1.447,0,1,0,0,2.894H225.38a1.447,1.447,0,0,0,0-2.894Z" transform="translate(-208.5 -79.094)"/></g><g transform="translate(0)"><path class="a" d="M94.428,90.088h-8.1V34.451A1.447,1.447,0,0,0,84.879,33H81.021V22.877a1.447,1.447,0,0,0-1.447-1.447H63.37V20.416a1.447,1.447,0,0,0-2.894,0V21.43H58.546A1.446,1.446,0,0,0,57.1,20.016H41.668a1.447,1.447,0,1,0,0,2.894H54.014v1.865H41.668a1.447,1.447,0,1,0,0,2.894H54.014v1.863H41.668a1.446,1.446,0,0,0-1,2.49H38.292V2.894H60.477V14.211a1.447,1.447,0,0,0,2.894,0V1.447A1.447,1.447,0,0,0,61.923,0H36.845A1.447,1.447,0,0,0,35.4,1.447V32.023H32.556A1.447,1.447,0,0,0,31.11,33.47v3.762H29.322V33.47a1.447,1.447,0,0,0-1.447-1.447H19a1.447,1.447,0,0,0-1.447,1.447v3.762H12.346A1.447,1.447,0,0,0,10.9,38.678v4.485a1.447,1.447,0,0,0,2.894,0V40.125H48.709V90.088H45.816v-20.3a1.447,1.447,0,0,0-1.447-1.447H18.133a1.447,1.447,0,0,0-1.447,1.447v20.3H13.793v-40.7a1.447,1.447,0,0,0-2.894,0v40.7H4.34a4.34,4.34,0,1,0,0,8.681H94.428a4.34,4.34,0,1,0,0-8.681Zm-68-52.857h-5.98V34.916h5.98Zm13.555,0H34V34.916h5.98ZM56.908,24.324h21.22V33H73.645V28.278A1.447,1.447,0,0,0,72.2,26.831H61.781a1.447,1.447,0,0,0-1.447,1.447V33H56.908Zm13.843,5.4V33H63.227V29.725ZM83.433,35.9v54.19H80.539V80a1.447,1.447,0,0,0-1.447-1.447h-3.4a1.447,1.447,0,1,0,0,2.894h1.953v8.645H57.39V81.443H69.447a1.447,1.447,0,0,0,0-2.894h-13.5A1.447,1.447,0,0,0,54.5,80V90.088H51.6V35.9ZM42.877,37.231V33.47a1.441,1.441,0,0,0-.446-1.044H54.014V33H50.156a1.447,1.447,0,0,0-1.447,1.447v2.78Zm-23.3,34H42.922V90.088H19.58ZM94.428,95.875H4.34a1.447,1.447,0,1,1,0-2.894H94.428a1.447,1.447,0,1,1,0,2.894Z"/></g><g transform="translate(16.687 43.935)"><path class="a" d="M114.182,227.75H87.947A1.447,1.447,0,0,0,86.5,229.2v5.787a1.447,1.447,0,0,0,1.447,1.447h26.235a1.447,1.447,0,0,0,1.447-1.447V229.2A1.447,1.447,0,0,0,114.182,227.75Zm-1.447,5.787H89.394v-2.894h23.342Z" transform="translate(-86.5 -227.75)"/></g><g transform="translate(16.687 55.493)"><path class="a" d="M114.182,287.667H87.947a1.447,1.447,0,0,0-1.447,1.447V294.9a1.447,1.447,0,0,0,1.447,1.447h26.235a1.447,1.447,0,0,0,1.447-1.447v-5.787A1.447,1.447,0,0,0,114.182,287.667Zm-1.447,5.787H89.394v-2.894h23.342Z" transform="translate(-86.5 -287.667)"/></g><g transform="translate(54.497 43.935)"><path class="a" d="M307.1,227.75H283.947A1.447,1.447,0,0,0,282.5,229.2v5.787a1.447,1.447,0,0,0,1.447,1.447H307.1a1.447,1.447,0,0,0,1.447-1.447V229.2A1.447,1.447,0,0,0,307.1,227.75Zm-1.447,5.787H285.394v-2.894h20.255Z" transform="translate(-282.5 -227.75)"/></g><g transform="translate(54.497 55.493)"><path class="a" d="M307.1,287.667H283.947a1.447,1.447,0,0,0-1.447,1.447V294.9a1.447,1.447,0,0,0,1.447,1.447H307.1a1.447,1.447,0,0,0,1.447-1.447v-5.787A1.447,1.447,0,0,0,307.1,287.667Zm-1.447,5.787H285.394v-2.894h20.255Z" transform="translate(-282.5 -287.667)"/></g><g transform="translate(54.497 67.011)"><path class="a" d="M307.1,347.375H283.947a1.447,1.447,0,0,0-1.447,1.447v5.787a1.447,1.447,0,0,0,1.447,1.447H307.1a1.447,1.447,0,0,0,1.447-1.447v-5.787A1.447,1.447,0,0,0,307.1,347.375Zm-1.447,5.787H285.394v-2.894h20.255Z" transform="translate(-282.5 -347.375)"/></g><g transform="translate(23.052 75.577)"><path class="a" d="M134.031,396.472v-1.292a3.408,3.408,0,0,0-3.4-3.4h-5.861a3.408,3.408,0,0,0-3.4,3.4v1.292a2.416,2.416,0,0,0-1.865,2.348v4.049a1.447,1.447,0,0,0,1.009,1.379v.3a1.447,1.447,0,0,0,2.894,0v-.234h8.591v.234a1.447,1.447,0,0,0,2.894,0v-.3a1.447,1.447,0,0,0,1.009-1.379V398.82A2.415,2.415,0,0,0,134.031,396.472Zm-9.264-1.8h5.861a.511.511,0,0,1,.51.51v1.226h-6.88v-1.226h0A.511.511,0,0,1,124.767,394.671ZM133,401.422h-10.61V399.3H133Z" transform="translate(-119.498 -391.777)"/></g><g transform="translate(0 11.135)"><path class="a" d="M32.2,68.292A4.621,4.621,0,0,0,27,64.213a5.182,5.182,0,0,0-5.14-3.767A6.1,6.1,0,0,0,16.8,57.72a6.039,6.039,0,0,0-5.092,2.769,6.628,6.628,0,0,0-8.174,3.816A4.653,4.653,0,0,0,0,68.71,4.543,4.543,0,0,0,1.323,72a4.773,4.773,0,0,0,3.384,1.425H27.6a4.625,4.625,0,0,0,4.6-5.13ZM28.89,69.953a1.711,1.711,0,0,1-1.288.575H4.707a1.862,1.862,0,0,1-1.319-.559,1.672,1.672,0,0,1-.495-1.205,1.738,1.738,0,0,1,1.71-1.7h.027a1.447,1.447,0,0,0,1.409-1.12,3.732,3.732,0,0,1,5.355-2.464,1.779,1.779,0,0,0,2.471-.9,3.17,3.17,0,0,1,5.79-.17,1.774,1.774,0,0,0,1.941.969,2.186,2.186,0,0,1,.421-.042A2.286,2.286,0,0,1,24.3,65.624a1.783,1.783,0,0,0,.841,1.525,1.755,1.755,0,0,0,1.712.091,1.7,1.7,0,0,1,.976-.158h0a1.73,1.73,0,0,1,1.061,2.872Z" transform="translate(0 -57.72)"/></g><g transform="translate(66.543 2.046)"><path class="a" d="M373.641,17.192a6.628,6.628,0,0,0-8.174-3.816,6.039,6.039,0,0,0-5.092-2.769,6.1,6.1,0,0,0-5.061,2.727,5.179,5.179,0,0,0-5.139,3.767,4.663,4.663,0,0,0-1.191,0h0a4.624,4.624,0,0,0,.587,9.211h22.895a4.772,4.772,0,0,0,3.384-1.426,4.542,4.542,0,0,0,1.323-3.286A4.654,4.654,0,0,0,373.641,17.192Zm.144,5.664a1.861,1.861,0,0,1-1.319.559H349.572a1.731,1.731,0,0,1-1.72-1.927,1.732,1.732,0,0,1,1.493-1.519h0a1.841,1.841,0,0,1,.229-.014,1.688,1.688,0,0,1,.748.173,1.755,1.755,0,0,0,1.711-.092,1.784,1.784,0,0,0,.84-1.528,2.285,2.285,0,0,1,2.283-2.283,2.191,2.191,0,0,1,.422.042,1.774,1.774,0,0,0,1.941-.969,3.17,3.17,0,0,1,5.79.171,1.779,1.779,0,0,0,2.471.9,3.732,3.732,0,0,1,5.354,2.464,1.438,1.438,0,0,0,1.436,1.12,1.738,1.738,0,0,1,1.71,1.7A1.67,1.67,0,0,1,373.785,22.856Z" transform="translate(-344.948 -10.607)"/></g></svg>