<svg xmlns="http://www.w3.org/2000/svg" width="113.721" height="98.558" viewBox="0 0 113.721 98.558"><defs><style>.a{fill:#fff;}</style></defs><path class="a" d="M34.954,26.234l-10.2-10.2,4.285-6.45H46.428l4.285,6.45L40.473,26.271l5.36,5.36L60.459,17.005,50.492,2H24.972L15,17.005,29.593,31.594Z" transform="translate(41.873 -2)"/><path class="a" d="M37.907,83.814a36.731,36.731,0,0,0,12.414-2.1A37.92,37.92,0,0,0,75.814,45.907,37.2,37.2,0,0,0,73.2,32.155l-7.048,2.791a29.649,29.649,0,0,1,2.084,10.961A30.341,30.341,0,0,1,47.811,74.559a29.248,29.248,0,0,1-9.9,1.673,30.326,30.326,0,0,1,0-60.651,30.045,30.045,0,0,1,14.909,3.933l3.768-6.578A37.9,37.9,0,1,0,37.907,83.814Z" transform="translate(0 14.744)"/><path class="a" d="M46.116,10a34.093,34.093,0,0,0-27.21,13.525A34.417,34.417,0,0,0,12,44.116a33.543,33.543,0,0,0,3.672,15.366l6.756-3.439a26.06,26.06,0,0,1-2.847-11.927A26.535,26.535,0,1,1,46.116,70.651a25.392,25.392,0,0,1-8.579-1.446l-2.554,7.137a32.9,32.9,0,0,0,11.133,1.89,34.116,34.116,0,0,0,0-68.232Z" transform="translate(33.488 20.326)"/></svg>